<?xml version="1.0" encoding="utf-8"?>
<!-- Generator: Adobe Illustrator 24.0.3, SVG Export Plug-In . SVG Version: 6.00 Build 0)  -->
<svg version="1.1" id="Layer_1" xmlns="http://www.w3.org/2000/svg" xmlns:xlink="http://www.w3.org/1999/xlink" x="0px" y="0px"
	 viewBox="0 0 256 48" style="enable-background:new 0 0 256 48;" xml:space="preserve">
<style type="text/css">
	.st0{fill:#00A0DF;}
	.st1{fill:#231F20;}
</style>
<g>
	<path class="st0" d="M59,0.5H6.1c-2.9,0-5.2,2.3-5.2,5.2v36.6c0,2.9,2.3,5.2,5.2,5.2H59c2.9,0,5.2-2.3,5.2-5.2V5.7
		C64.3,2.8,61.9,0.5,59,0.5z M50.1,21.3c0,3-2.4,5.5-5.3,5.5h-9.6v15.8h-5.8V18.5h5.8V21h6.9c1.2,0,2.2-1,2.2-2.3v-5
		c0-1.3-1-2.3-2.2-2.3H14.9c-1.2,0-2.2,1-2.2,2.3v20.8c0,1.3,1,2.3,2.2,2.3H25v5.8H12c-2.9,0-5.3-2.4-5.3-5.5V10.7
		c0-3,2.4-5.5,5.3-5.5h32.9c2.9,0,5.3,2.5,5.3,5.5V21.3z M58.7,42.6h-5.2V5.2h5.2V42.6z"/>
	<g>
		<path class="st1" d="M72.4,21.4c0-1.8,0.6-3.5,3.1-3.5c1.8,0,2.6,0.9,2.6,2.4v1.3h-1.7v-0.9c0-0.8-0.3-1.4-1.1-1.4
			c-0.9,0-1.1,0.7-1.1,2.3V28c0,1.5,0.5,1.8,1.1,1.8c0.7,0,1.1-0.5,1.1-1.6v-0.9h1.7v1.5c0,1.4-0.6,2.4-2.7,2.4c-2.3,0-3-1.2-3-3.3
			V21.4z"/>
		<path class="st1" d="M81.7,18h1.8v5.6h2.4V18h1.8v13.1h-1.8v-6h-2.4v6h-1.8V18z"/>
		<path class="st1" d="M94.2,18h2.1L99,31.1h-1.8l-0.6-3.3h-2.8l-0.6,3.3h-1.8L94.2,18z M94,26.3h2.3L95.2,20h0L94,26.3z"/>
		<path class="st1" d="M100.6,18h6.2v1.5h-2.2v11.6h-1.8V19.6h-2.2V18z"/>
		<path class="st1" d="M110,27.3h1.8v1.1c0,0.9,0.3,1.4,1.1,1.4c1,0,1.2-0.7,1.2-1.5c0-1.1-0.1-1.5-1.9-3.3c-1.2-1.2-2.1-2.2-2.1-4
			c0-2.1,1-3.1,3-3.1c1,0,1.7,0.3,2.1,0.7c0.3,0.3,0.5,0.7,0.5,1.7v1.2H114v-1c0-0.7-0.3-1.2-1-1.2c-0.7,0-1.1,0.4-1.1,1.4
			c0,0.9,0.2,1.4,1.9,3.2c1.8,1.9,2.1,2.5,2.1,4.1c0,2.1-0.8,3.2-3,3.2c-1.7,0-2.8-0.7-2.8-2.3V27.3z"/>
		<path class="st1" d="M119.2,18h1.9l1.3,10.8h0l1.5-10.8h2.5l1.2,10.8h0l1.6-10.8h1.7l-2.4,13.1h-2.2l-1.2-11h0l-1.5,11h-2.2
			L119.2,18z"/>
		<path class="st1" d="M134.1,21.4c0-1.8,0.6-3.5,3.1-3.5c2.3,0,3.1,1.2,3.1,3.3v6.6c0,1.8-0.6,3.5-3.1,3.5c-2.3,0-3.1-1.2-3.1-3.3
			V21.4z M136,28.1c0,1.1,0.5,1.7,1.3,1.7c0.8,0,1.3-0.6,1.3-1.7v-6.9c0-1.3-0.4-1.9-1.3-1.9c-0.8,0-1.3,0.6-1.3,1.9V28.1z"/>
		<path class="st1" d="M144.3,18h2.8c2.7,0,2.9,0.7,2.9,3.6c0,1.8-0.2,2.5-1.7,3v0c1.2,0.1,1.7,0.8,1.7,2v2.9c0,0.5,0,1.1,0.1,1.7
			h-1.7c-0.2-0.3-0.2-0.7-0.2-1.2v-3c0-1.2-0.2-1.6-1.4-1.6h-0.6v5.7h-1.8V18z M146.1,23.9h0.5c1.4,0,1.6-0.3,1.6-2.2
			c0-1.9-0.1-2.1-1.2-2.1h-0.9V23.9z"/>
		<path class="st1" d="M152.9,18h6.2v1.5h-2.2v11.6H155V19.6h-2.2V18z"/>
		<path class="st1" d="M162.5,18h1.8v5.6h2.4V18h1.8v13.1h-1.8v-6h-2.4v6h-1.8V18z"/>
		<path class="st1" d="M181.2,18h3c2.5,0,2.9,0.7,2.9,3.7c0,3-0.5,3.7-2.9,3.7H183v5.7h-1.8V18z M183,23.9h0.9
			c1.2,0,1.4-0.2,1.4-2.2c0-2-0.1-2.2-1.4-2.2H183V23.9z"/>
		<path class="st1" d="M190.6,18h2.8c2.7,0,2.9,0.7,2.9,3.6c0,1.8-0.2,2.5-1.7,3v0c1.2,0.1,1.7,0.8,1.7,2v2.9c0,0.5,0,1.1,0.1,1.7
			h-1.7c-0.2-0.3-0.2-0.7-0.2-1.2v-3c0-1.2-0.2-1.6-1.4-1.6h-0.6v5.7h-1.8V18z M192.5,23.9h0.5c1.4,0,1.6-0.3,1.6-2.2
			c0-1.9-0.1-2.1-1.2-2.1h-0.9V23.9z"/>
		<path class="st1" d="M200,21.4c0-1.8,0.6-3.5,3.1-3.5c2.3,0,3.1,1.2,3.1,3.3v6.6c0,1.8-0.6,3.5-3.1,3.5c-2.3,0-3.1-1.2-3.1-3.3
			V21.4z M201.8,28.1c0,1.1,0.5,1.7,1.3,1.7c0.8,0,1.3-0.6,1.3-1.7v-6.9c0-1.3-0.4-1.9-1.3-1.9c-0.8,0-1.3,0.6-1.3,1.9V28.1z"/>
		<path class="st1" d="M209.8,18h2.9c2.9,0,3.2,1,3.2,4.8v3.9c0,3.4-0.6,4.4-3.5,4.4h-2.6V18z M211.6,29.6h0.9c1.3,0,1.6-0.7,1.6-3
			v-4.5c0-1.9-0.2-2.6-1.7-2.6h-0.7V29.6z"/>
		<path class="st1" d="M225.7,28.2c0,1.5-0.6,3.1-3.1,3.1c-2.5,0-3.1-1.5-3.1-3.1V18h1.8v10.5c0,0.9,0.3,1.3,1.3,1.3
			c0.9,0,1.3-0.5,1.3-1.3V18h1.8V28.2z"/>
		<path class="st1" d="M229.1,21.4c0-1.8,0.6-3.5,3.1-3.5c1.8,0,2.6,0.9,2.6,2.4v1.3h-1.7v-0.9c0-0.8-0.3-1.4-1.1-1.4
			c-0.9,0-1.1,0.7-1.1,2.3V28c0,1.5,0.5,1.8,1.1,1.8c0.7,0,1.1-0.5,1.1-1.6v-0.9h1.7v1.5c0,1.4-0.6,2.4-2.7,2.4c-2.3,0-3-1.2-3-3.3
			V21.4z"/>
		<path class="st1" d="M237.5,18h6.2v1.5h-2.2v11.6h-1.8V19.6h-2.2V18z"/>
		<path class="st1" d="M246.6,27.3h1.8v1.1c0,0.9,0.3,1.4,1.1,1.4c1,0,1.2-0.7,1.2-1.5c0-1.1-0.1-1.5-1.9-3.3
			c-1.2-1.2-2.1-2.2-2.1-4c0-2.1,1-3.1,3-3.1c1,0,1.7,0.3,2.1,0.7c0.3,0.3,0.5,0.7,0.5,1.7v1.2h-1.7v-1c0-0.7-0.3-1.2-1-1.2
			c-0.7,0-1.1,0.4-1.1,1.4c0,0.9,0.2,1.4,1.9,3.2c1.8,1.9,2.1,2.5,2.1,4.1c0,2.1-0.8,3.2-3,3.2c-1.7,0-2.8-0.7-2.8-2.3V27.3z"/>
	</g>
</g>
</svg>
