<?xml version="1.0" encoding="utf-8"?>
<svg version="1.1" id="_x31_71x80" xmlns="http://www.w3.org/2000/svg" xmlns:xlink="http://www.w3.org/1999/xlink" x="0px" y="0px" viewBox="0 0 171 80" style="enable-background:new 0 0 171 80;" xml:space="preserve">
<style type="text/css">
	.st0{fill:#F0AB00;}
	.st1{fill:#FFFFFF;}
</style>
<rect x="0" class="st0" width="171" height="80" />
<g>
	<path class="st1" d="M27.62,32.1H31v3.21h0.08c1.61-2.45,4.06-3.72,7.06-3.72c2.66,0,5.12,1.06,6,3.72   c1.48-2.33,4.06-3.72,6.85-3.72c4.35,0,7.27,1.82,7.27,6.34v16.02h-3.59V39.62c0-2.71-0.72-4.86-4.23-4.86   c-3.47,0-5.71,2.2-5.71,5.58v13.61h-3.59V39.62c0-2.83-0.89-4.86-4.1-4.86c-4.27,0-5.83,3.93-5.83,5.58v13.61h-3.59V32.1z" />
	<path class="st1" d="M80.66,53.87c-0.63,0.38-1.44,0.59-2.58,0.59c-1.86,0-3.04-1.02-3.04-3.38c-1.99,2.33-4.65,3.38-7.69,3.38   c-3.97,0-7.23-1.78-7.23-6.13c0-4.95,3.68-6,7.4-6.72c3.97-0.76,7.36-0.51,7.36-3.21c0-3.13-2.58-3.64-4.86-3.64   c-3.04,0-5.28,0.93-5.45,4.14h-3.59c0.21-5.41,4.4-7.31,9.26-7.31c3.93,0,8.2,0.89,8.2,6v11.25c0,1.69,0,2.45,1.14,2.45   c0.3,0,0.63-0.04,1.1-0.21V53.87z M74.83,42.66c-1.39,1.02-4.1,1.06-6.51,1.48c-2.37,0.42-4.4,1.27-4.4,3.93   c0,2.37,2.03,3.21,4.23,3.21c4.73,0,6.68-2.96,6.68-4.94V42.66z" />
	<path class="st1" d="M81.63,32.1h3.38v3.47h0.08c1.52-2.71,3.97-3.97,7.1-3.97c5.75,0,7.52,3.3,7.52,7.99v14.37h-3.59v-14.8   c0-2.66-1.69-4.4-4.44-4.4c-4.35,0-6.47,2.92-6.47,6.85v12.34h-3.59V32.1z" />
	<path class="st1" d="M122.13,53.87c-0.63,0.38-1.44,0.59-2.58,0.59c-1.86,0-3.04-1.02-3.04-3.38c-1.99,2.33-4.65,3.38-7.69,3.38   c-3.97,0-7.23-1.78-7.23-6.13c0-4.95,3.68-6,7.4-6.72c3.97-0.76,7.36-0.51,7.36-3.21c0-3.13-2.58-3.64-4.86-3.64   c-3.04,0-5.28,0.93-5.45,4.14h-3.59c0.21-5.41,4.4-7.31,9.26-7.31c3.93,0,8.2,0.89,8.2,6v11.25c0,1.69,0,2.45,1.14,2.45   c0.3,0,0.63-0.04,1.1-0.21V53.87z M116.29,42.66c-1.4,1.02-4.1,1.06-6.51,1.48c-2.37,0.42-4.4,1.27-4.4,3.93   c0,2.37,2.03,3.21,4.23,3.21c4.74,0,6.68-2.96,6.68-4.94V42.66z" />
	<path class="st1" d="M128.08,32.1h4.35v3.17h-4.35v13.57c0,1.65,0.47,1.94,2.71,1.94h1.65v3.17h-2.75c-3.72,0-5.2-0.76-5.2-4.78   V35.26h-3.72V32.1h3.72v-6.55h3.59V32.1z" />
	<path class="st1" d="M139.03,32.1h4.36v3.17h-4.36v13.57c0,1.65,0.46,1.94,2.71,1.94h1.65v3.17h-2.75c-3.72,0-5.2-0.76-5.2-4.78   V35.26h-3.72V32.1h3.72v-6.55h3.59V32.1z" />
</g>
</svg>